<svg height="512" viewBox="0 0 512 512" width="512" xmlns="http://www.w3.org/2000/svg" xmlns:xlink="http://www.w3.org/1999/xlink"><linearGradient id="New_Gradient_Swatch_2" gradientUnits="userSpaceOnUse" x1="256.668" x2="256.668" y1="56.082" y2="457.399"><stop offset="0" stop-color="#fc5c7d"/><stop offset=".129" stop-color="#f35e85"/><stop offset=".343" stop-color="#d9659b"/><stop offset=".616" stop-color="#b070bf"/><stop offset=".934" stop-color="#777ff0"/><stop offset="1" stop-color="#6a82fb"/></linearGradient><linearGradient id="New_Gradient_Swatch_2-2" x1="472.892" x2="472.892" xlink:href="#New_Gradient_Swatch_2" y1="56.082" y2="457.399"/><linearGradient id="New_Gradient_Swatch_2-3" x1="394.992" x2="394.992" xlink:href="#New_Gradient_Swatch_2" y1="56.082" y2="457.399"/><linearGradient id="New_Gradient_Swatch_2-4" x1="256" x2="256" xlink:href="#New_Gradient_Swatch_2" y1="56.082" y2="457.399"/><linearGradient id="New_Gradient_Swatch_2-7" x1="142.863" x2="142.863" xlink:href="#New_Gradient_Swatch_2" y1="56.082" y2="457.399"/><linearGradient id="New_Gradient_Swatch_2-8" x1="96" x2="96" xlink:href="#New_Gradient_Swatch_2" y1="56.082" y2="457.399"/><linearGradient id="New_Gradient_Swatch_2-9" x1="142.871" x2="142.871" xlink:href="#New_Gradient_Swatch_2" y1="56.082" y2="457.399"/><linearGradient id="New_Gradient_Swatch_2-10" x1="258.802" x2="258.802" xlink:href="#New_Gradient_Swatch_2" y1="56.082" y2="457.399"/><linearGradient id="New_Gradient_Swatch_2-11" x1="369.137" x2="369.137" xlink:href="#New_Gradient_Swatch_2" y1="56.082" y2="457.399"/><linearGradient id="New_Gradient_Swatch_2-12" x1="416" x2="416" xlink:href="#New_Gradient_Swatch_2" y1="56.082" y2="457.399"/><g id="GD001"><path d="m473.954 429.437-362.593-31.524a41.983 41.983 0 0 0 -64.738-6.527l-27.13 27.167a8 8 0 0 0 -.693 10.513l23.325 30.5a41.541 41.541 0 0 0 33.307 16.479q.508 0 1.02-.012a41.49 41.49 0 0 0 30.705-14.433l363.593 16.394q.546.025 1.088.025a24.482 24.482 0 0 0 24.292-22.736 24.467 24.467 0 0 0 -22.176-25.846zm-378.379 21.074a25.976 25.976 0 0 1 -40.741-.669l-19.072-24.936 22.182-22.214a25.977 25.977 0 0 1 40.478 4.691zm32.333-3.992-15.987-.721 2.085-31.6 15.943 1.386zm31.975 1.441-15.988-.72 2-30.265 15.944 1.386zm320.282 6.269a8.349 8.349 0 0 1 -8.694 7.78l-295.6-13.329 1.909-28.934 294.789 25.629a8.381 8.381 0 0 1 7.596 8.854z" fill="url(#New_Gradient_Swatch_2)"/><path d="m484.209 150.951a79.744 79.744 0 0 0 -17.783-8.14l-4.852 15.246a63.727 63.727 0 0 1 14.217 6.5z" fill="url(#New_Gradient_Swatch_2-2)"/><path d="m355.127 109.94c-2.766 22.328-4.071 37.469 2.7 44.238 3.638 3.636 9.691 4.941 17.981 4.941 7.134 0 15.927-.967 26.26-2.247 13.981-1.73 29.829-3.692 44.99-1.889l1.892-15.886c-17.091-2.037-33.963.052-48.866 1.9-7.029.871-25.018 3.1-30.722 1.647-1.453-5.7.777-23.7 1.648-30.74 3.417-27.594 8.1-65.387-17.981-94.894l-11.992 10.59c21.301 24.107 17.471 55.043 14.09 82.34z" fill="url(#New_Gradient_Swatch_2-3)"/><g fill="url(#New_Gradient_Swatch_2-4)"><path d="m59.779 364.132a224.038 224.038 0 0 1 196.221-332.132c31.1 0 51.07 5.494 61.059 16.8 11.75 13.3 9.108 34.628 6.31 57.212-3.194 25.8-6.5 52.472 11.826 70.8s45 15.019 70.8 11.826c22.586-2.8 43.918-5.439 57.212 6.31 11.299 9.982 16.793 29.952 16.793 61.052a223.882 223.882 0 0 1 -54.767 146.756l12.084 10.488a239.889 239.889 0 0 0 58.683-157.244c0-35.951-7.262-59.846-22.2-73.048-18.7-16.526-44.665-13.309-69.775-10.2-23 2.848-44.716 5.538-57.516-7.262s-10.11-34.52-7.262-57.516c3.11-25.11 6.326-51.075-10.2-69.775-13.201-14.937-37.096-22.199-73.047-22.199a240.071 240.071 0 0 0 -210.227 355.868z"/><path d="m256 48a48 48 0 1 0 48 48 48.053 48.053 0 0 0 -48-48zm0 80a32 32 0 1 1 32-32 32.036 32.036 0 0 1 -32 32z"/><path d="m256 208a48 48 0 1 0 48 48 48.053 48.053 0 0 0 -48-48zm0 80a32 32 0 1 1 32-32 32.036 32.036 0 0 1 -32 32z"/></g><path d="m176.805 108.922a48 48 0 1 0 14.058 33.941 47.688 47.688 0 0 0 -14.058-33.941zm-11.315 56.568a32 32 0 1 1 0-45.254 32 32 0 0 1 0 45.254z" fill="url(#New_Gradient_Swatch_2-7)"/><path d="m144 256a48 48 0 1 0 -48 48 48.053 48.053 0 0 0 48-48zm-48 32a32 32 0 1 1 32-32 32.036 32.036 0 0 1 -32 32z" fill="url(#New_Gradient_Swatch_2-8)"/><path d="m182.621 396.044a48 48 0 1 0 -87.739-28.27l15.994.452a32 32 0 1 1 58.5 18.837z" fill="url(#New_Gradient_Swatch_2-9)"/><path d="m217.6 387.2 12.793 9.61a32.012 32.012 0 0 1 54.947 6.4l14.66-6.41a48.012 48.012 0 0 0 -82.4-9.6z" fill="url(#New_Gradient_Swatch_2-10)"/><path d="m387.418 395.41 9.164 13.116a48.378 48.378 0 0 0 6.5-5.448 48 48 0 1 0 -67.882 0 49.04 49.04 0 0 0 3.769 3.394l10.072-12.432a33 33 0 0 1 -2.527-2.276 32 32 0 1 1 45.254 0 32.452 32.452 0 0 1 -4.35 3.646z" fill="url(#New_Gradient_Swatch_2-11)"/><path d="m464 256a48 48 0 1 0 -48 48 48.053 48.053 0 0 0 48-48zm-48 32a32 32 0 1 1 32-32 32.036 32.036 0 0 1 -32 32z" fill="url(#New_Gradient_Swatch_2-12)"/></g></svg>