<svg id="Layer_1" height="512" viewBox="0 0 512 512" width="512" xmlns="http://www.w3.org/2000/svg" xmlns:xlink="http://www.w3.org/1999/xlink" data-name="Layer 1"><linearGradient id="linear-gradient" gradientUnits="userSpaceOnUse" x1="276.659" x2="276.659" y1="497.052" y2="77.61"><stop offset=".322" stop-color="#a163f5"/><stop offset=".466" stop-color="#b074ee"/><stop offset=".752" stop-color="#d8a1dd"/><stop offset=".898" stop-color="#efbad3"/></linearGradient><linearGradient id="linear-gradient-2" x1="256" x2="256" xlink:href="#linear-gradient" y1="497.578" y2="77.672"/><path d="m388.4 76.668a26.846 26.846 0 0 0 -19.1-7.951l-22.165-.041 3.006-3.075a25.684 25.684 0 1 0 -36.25-36.391l-36.576 36.44-26.836-26.936a25.513 25.513 0 0 0 -18.148-7.556h-.049a25.7 25.7 0 0 0 -22.931 37.263l-25.185-.047h-.051a27.025 27.025 0 0 0 -27.025 26.977l-.054 29.765a6 6 0 0 0 6 6.011h8.876v107.123a27.057 27.057 0 0 0 27.026 27.026h155.441a27.057 27.057 0 0 0 27.026-27.026v-107.123h8.823a6 6 0 0 0 6-5.989l.053-29.344a26.846 26.846 0 0 0 -7.881-19.126zm-66.041-38.957a13.685 13.685 0 1 1 19.263 19.444l-11.162 11.414h-39.075zm-99.734 9.437a13.594 13.594 0 0 1 9.658-3.99h.026a13.6 13.6 0 0 1 9.67 4.026l21.257 21.337-38.984-.351-1.663-1.67a13.685 13.685 0 0 1 .036-19.353zm21.947 206.128h-45.634a15.043 15.043 0 0 1 -15.026-15.026v-107.123h60.724zm.07-134.149h-75.595l.043-23.754a15.026 15.026 0 0 1 15.025-15h.03l60.517.112zm53.388 134.149h-41.458l.064-122.149h41.457zm.069-134.149h-41.457l.02-38.619 41.457.077zm71.306 119.123a15.043 15.043 0 0 1 -15.026 15.026h-44.349l.063-122.149h59.312zm14.833-119.123h-74.138l.02-38.52 59.164.11a15.026 15.026 0 0 1 15 15.054z" fill="url(#linear-gradient)"/><path d="m450.022 310.982-3.186 1.719c-10.465-13.124-28.966-18.292-43.008-11.174-.045.023-.09.046-.134.07l-6.714 3.617a46.931 46.931 0 0 0 -54.125-5.178l-33.965 18.469h-45.158a65.673 65.673 0 0 1 -28.434-6.516l-6.186-2.989a105.4 105.4 0 0 0 -109.7 10.713c-.131.1-.259.2-.382.312l-14.93 13.295c-5.444 4.844-61.67 34.38-95.833 51.861a6 6 0 1 0 5.466 10.683c14.984-7.667 90.143-46.28 98.344-53.581l14.747-13.13a93.448 93.448 0 0 1 97.064-9.352l6.185 2.991a77.751 77.751 0 0 0 33.659 7.713h59.987a38.664 38.664 0 0 1 38.086 32.3l-44.382-2.005a259.673 259.673 0 0 0 -47.185 2.18 6 6 0 1 0 1.645 11.886 247.464 247.464 0 0 1 45-2.078l51.167 2.316a6 6 0 0 0 6.271-6c0-1.231-.059-2.448-.146-3.658l7.431-3.918 74.119-39.985a30.1 30.1 0 0 1 36.792 6.43l-150.517 103.346a103.891 103.891 0 0 1 -63.8 8.881l-89.971-16.568a39.4 39.4 0 0 0 -28.777 3.913l-90.142 51.525a6 6 0 1 0 5.955 10.418l90.093-51.5a27.439 27.439 0 0 1 20.141-2.672q.186.048.375.081l90.17 16.606a115.993 115.993 0 0 0 71.656-10.115 6.011 6.011 0 0 0 .735-.431l155.965-107.087a6 6 0 0 0 1.745-8.041 42.084 42.084 0 0 0 -56.123-15.347zm-101.365-.441.143-.08a34.929 34.929 0 0 1 36.592 1l-31.566 17.008a50.359 50.359 0 0 0 -21.266-9.172zm27.3 40.4-4.224 2.227a50.55 50.55 0 0 0 -8.789-15.982l46.37-24.986c8.32-4.171 19.592-1.183 26.709 6.336z" fill="url(#linear-gradient-2)"/></svg>