<svg height="448pt" viewBox="-24 0 448 448" width="448pt" xmlns="http://www.w3.org/2000/svg" xmlns:xlink="http://www.w3.org/1999/xlink"><linearGradient id="lg1"><stop offset="0" stop-color="#fc5c7d"/><stop offset=".129" stop-color="#f35e85"/><stop offset=".343" stop-color="#d9659b"/><stop offset=".616" stop-color="#b070bf"/><stop offset=".934" stop-color="#777ff0"/><stop offset="1" stop-color="#6a82fb"/></linearGradient><linearGradient id="linear0" gradientUnits="userSpaceOnUse" x1="136" x2="136" xlink:href="#lg1" y1="-25.8" y2="476.152"/><linearGradient id="linear1" gradientUnits="userSpaceOnUse" x1="248" x2="248" xlink:href="#lg1" y1="-25.8" y2="476.152"/><linearGradient id="linear2" gradientUnits="userSpaceOnUse" x1="200" x2="200" xlink:href="#lg1" y1="-25.8" y2="476.152"/><path d="m160 104v-24.800781c20.625-4.210938 34.457031-23.683594 31.640625-44.542969s-21.316406-35.96875-42.316406-34.5585938c-21.003907 1.4101558-37.320313 18.8515628-37.324219 39.9023438.039062 8.953125 3.109375 17.628906 8.710938 24.617188-23.398438 3.59375-40.679688 23.710937-40.710938 47.382812h16c0-17.671875 14.328125-32 32-32h16v24zm-8-88c13.253906 0 24 10.746094 24 24s-10.746094 24-24 24-24-10.746094-24-24 10.746094-24 24-24zm0 0" fill="url(#linear0)"/><path d="m256 104v-24h16c17.671875 0 32 14.328125 32 32h16c-.03125-23.671875-17.3125-43.789062-40.710938-47.382812 5.601563-6.988282 8.671876-15.664063 8.710938-24.617188 0-22.089844-17.910156-40-40-40s-40 17.910156-40 40c.039062 8.953125 3.109375 17.628906 8.710938 24.617188-23.398438 3.59375-40.679688 23.710937-40.710938 47.382812h16c0-17.671875 14.328125-32 32-32h16v24zm-8-88c13.253906 0 24 10.746094 24 24s-10.746094 24-24 24-24-10.746094-24-24 10.746094-24 24-24zm0 0" fill="url(#linear1)"/><path d="m368 384h-32v-72h8c13.253906 0 24-10.746094 24-24v-48c-.03125-23.671875-17.3125-43.789062-40.710938-47.382812 5.601563-6.988282 8.671876-15.664063 8.710938-24.617188-.003906-21.050781-16.320312-38.492188-37.324219-39.902344-21-1.410156-39.5 13.699219-42.316406 34.558594s11.015625 40.332031 31.640625 44.542969v24.800781h16v-24h16c17.671875 0 32 14.328125 32 32v48c0 4.417969-3.582031 8-8 8h-8v-40h-16v128h-16v-56h-16v56h-16v-56h-16v56h-16v-72h8c13.253906 0 24-10.746094 24-24v-48c-.03125-23.671875-17.3125-43.789062-40.710938-47.382812 5.601563-6.988282 8.671876-15.664063 8.710938-24.617188 0-22.089844-17.910156-40-40-40s-40 17.910156-40 40c.039062 8.953125 3.109375 17.628906 8.710938 24.617188-23.398438 3.59375-40.679688 23.710937-40.710938 47.382812v48c0 13.253906 10.746094 24 24 24h8v72h-16v-56h-16v56h-16v-56h-16v56h-16v-128h-16v40h-8c-4.417969 0-8-3.582031-8-8v-48c0-17.671875 14.328125-32 32-32h16v24h16v-24.800781c20.625-4.210938 34.457031-23.683594 31.640625-44.542969s-21.316406-35.96875-42.316406-34.558594c-21.003907 1.410156-37.320313 18.851563-37.324219 39.902344.039062 8.953125 3.109375 17.628906 8.710938 24.617188-23.398438 3.59375-40.679688 23.710937-40.710938 47.382812v48c0 13.253906 10.746094 24 24 24h8v72h-32c-17.671875 0-32 14.328125-32 32s14.328125 32 32 32h336c17.671875 0 32-14.328125 32-32s-14.328125-32-32-32zm-96-216c0-13.253906 10.746094-24 24-24s24 10.746094 24 24-10.746094 24-24 24-24-10.746094-24-24zm-168-24c13.253906 0 24 10.746094 24 24s-10.746094 24-24 24-24-10.746094-24-24 10.746094-24 24-24zm96 0c13.253906 0 24 10.746094 24 24s-10.746094 24-24 24-24-10.746094-24-24 10.746094-24 24-24zm-24 160v-48h-16v40h-8c-4.417969 0-8-3.582031-8-8v-48c0-17.671875 14.328125-32 32-32h16v24h16v-24h16c17.671875 0 32 14.328125 32 32v48c0 4.417969-3.582031 8-8 8h-8v-40h-16v128h-16v-56h-16v56h-16zm192 128h-336c-8.835938 0-16-7.164062-16-16s7.164062-16 16-16h336c8.835938 0 16 7.164062 16 16s-7.164062 16-16 16zm0 0" fill="url(#linear2)"/></svg>