<?xml version="1.0" standalone="no"?>
<!DOCTYPE svg PUBLIC "-//W3C//DTD SVG 20010904//EN"
 "http://www.w3.org/TR/2001/REC-SVG-20010904/DTD/svg10.dtd">
<svg version="1.0" xmlns="http://www.w3.org/2000/svg"
 width="511.000000pt" height="306.000000pt" viewBox="0 0 511.000000 306.000000"
 preserveAspectRatio="xMidYMid meet">
<metadata>
Created by potrace 1.16, written by Peter Selinger 2001-2019
</metadata>
<g transform="translate(0.000000,306.000000) scale(0.100000,-0.100000)"
fill="#000000" stroke="none">
<path d="M35 3008 c-3 -7 -4 -206 -3 -443 l3 -430 469 -3 c336 -1 473 1 482 9
11 9 14 93 16 433 l3 421 64 3 c37 2 69 -2 75 -8 7 -7 13 -76 16 -178 5 -151
7 -167 23 -170 46 -9 69 11 198 174 72 91 143 170 156 175 36 13 153 12 153
-2 0 -13 -255 -332 -290 -364 -25 -22 -25 -40 -2 -57 10 -7 87 -105 172 -218
84 -113 158 -208 164 -212 13 -9 170 -10 179 -2 4 4 -15 18 -41 32 -50 26 -92
60 -92 74 0 19 47 79 66 84 14 3 39 -5 71 -25 127 -78 267 -52 287 53 14 73
-24 112 -146 151 -192 62 -248 120 -248 252 1 76 25 128 85 181 70 62 166 84
270 62 69 -14 153 -54 162 -76 7 -19 -14 -68 -38 -90 -19 -17 -22 -17 -75 9
-100 49 -190 45 -234 -10 -50 -63 -11 -133 95 -172 33 -12 78 -28 101 -36 141
-52 201 -148 174 -278 -15 -72 -59 -141 -115 -176 -24 -15 -42 -31 -38 -35 8
-8 468 -8 476 0 3 3 -22 25 -56 48 -65 43 -118 115 -137 188 -6 21 -9 159 -8
330 l3 293 71 3 c67 3 72 1 77 -20 3 -13 6 -143 7 -291 0 -303 4 -323 72 -381
96 -83 253 -43 304 77 15 36 19 83 23 327 l6 285 70 0 70 0 6 -100 c11 -183 3
-475 -14 -530 -27 -83 -70 -141 -139 -185 -41 -26 -57 -41 -48 -45 8 -3 290
-4 625 -3 l610 3 3 443 2 442 -2090 0 c-1663 0 -2092 -3 -2095 -12z"/>
<path d="M1162 2323 l3 -188 179 -3 c99 -1 183 1 188 6 4 4 -5 23 -20 42 -16
19 -72 94 -126 165 -54 72 -107 138 -118 148 -13 10 -37 17 -64 17 l-44 0 2
-187z"/>
<path d="M646 2044 c-3 -9 -6 -220 -6 -469 0 -342 3 -456 12 -461 7 -4 689 -7
1517 -6 1768 1 1574 0 1566 12 -3 5 -16 10 -28 10 -31 0 -158 62 -181 89 -17
19 -18 24 -6 46 19 36 49 65 65 65 8 0 36 -13 63 -30 121 -74 256 -55 282 40
23 84 -5 115 -150 165 -126 44 -147 55 -182 92 -37 39 -58 93 -58 150 0 82 17
124 74 179 86 84 206 104 343 58 98 -33 121 -66 86 -125 -24 -41 -44 -44 -103
-14 -75 38 -134 42 -190 13 -36 -19 -47 -30 -54 -60 -18 -70 19 -108 144 -149
82 -27 170 -71 192 -96 10 -10 27 -41 39 -68 39 -88 7 -219 -69 -286 -41 -36
-106 -68 -139 -69 -46 0 -30 -17 20 -22 96 -8 1029 0 1038 9 5 5 8 203 7 474
l-3 464 -2136 3 c-1942 2 -2137 1 -2143 -14z m289 -66 c14 -13 119 -142 233
-287 114 -146 213 -266 220 -269 9 -3 12 64 14 285 l3 288 65 0 65 0 0 -430 0
-430 -39 -3 c-21 -2 -50 2 -65 8 -15 7 -115 124 -245 291 -121 154 -223 276
-228 271 -4 -4 -9 -134 -10 -287 l-3 -280 -65 0 -65 0 -3 420 c-1 231 0 426 3
432 8 23 91 16 120 -9z m1202 10 c19 -24 333 -839 328 -849 -10 -15 -118 -11
-142 6 -12 8 -33 48 -48 92 -16 43 -33 84 -40 91 -13 15 -39 16 -226 14 l-136
-2 -32 -87 c-43 -117 -49 -123 -128 -123 -44 0 -65 4 -69 13 -3 8 27 94 66
193 39 98 112 282 161 408 49 126 94 235 100 243 15 17 153 18 166 1z m608
-423 l0 -430 -75 0 -75 0 -3 419 c-2 308 1 422 9 433 9 10 31 13 78 11 l66 -3
0 -430z m363 76 c1 -237 6 -359 13 -367 8 -10 54 -14 173 -16 l161 -3 0 -60 0
-60 -250 0 -250 0 -3 424 c-2 333 1 426 10 433 7 4 42 7 78 6 l65 -3 3 -354z"/>
<path d="M2047 1813 c-14 -22 -117 -317 -117 -334 0 -18 9 -19 125 -19 112 0
125 2 125 18 0 19 -108 322 -120 335 -4 5 -10 5 -13 0z"/>
<path d="M275 1018 c-3 -7 -4 -220 -3 -473 l3 -460 703 -3 702 -2 0 381 c0
243 4 387 10 400 10 18 23 19 178 19 197 0 263 -9 347 -49 156 -72 235 -204
235 -388 0 -133 -32 -218 -115 -311 l-47 -52 145 0 c123 0 146 2 151 16 3 9 6
186 6 395 l0 379 26 6 c14 4 99 4 188 1 179 -6 238 -19 305 -68 110 -79 127
-280 34 -389 -58 -67 -118 -91 -263 -104 l-125 -11 -3 -113 -3 -112 903 2 903
3 0 470 0 470 -2138 3 c-1705 2 -2139 0 -2142 -10z"/>
<path d="M1858 744 c-5 -4 -8 -142 -8 -306 l0 -298 118 0 c102 0 123 3 167 24
62 29 97 66 126 131 50 112 29 287 -43 366 -59 64 -108 82 -238 87 -63 2 -118
1 -122 -4z"/>
<path d="M2754 737 c-2 -7 -3 -76 -2 -152 l3 -140 72 -3 c92 -4 141 10 178 48
24 25 29 41 33 92 9 119 -49 168 -196 168 -59 0 -84 -4 -88 -13z"/>
</g>
</svg>
