<?xml version="1.0"?>
<svg xmlns="http://www.w3.org/2000/svg" xmlns:xlink="http://www.w3.org/1999/xlink" width="512" height="512" viewBox="0 0 128 128"><defs><linearGradient id="a" x1="116.775" y1="114.402" x2="44.058" y2="41.685" gradientUnits="userSpaceOnUse"><stop offset="0" stop-color="#979fef"/><stop offset="1" stop-color="#fa5e97"/></linearGradient></defs><path d="M63.346,69.56l-1.56-1.178v-9a1.75,1.75,0,0,0-1.75-1.75H30.013a1.75,1.75,0,0,0-1.75,1.75v9L26.7,69.56a29.419,29.419,0,0,0-10.019,33.222l8.444,24.048A1.749,1.749,0,0,0,26.778,128H63.27a1.75,1.75,0,0,0,1.652-1.17l8.445-24.048A29.428,29.428,0,0,0,63.346,69.56ZM31.763,61.128H58.286V67.5H31.763Zm38.3,40.5L62.03,124.5H28.019l-8.034-22.877a25.921,25.921,0,0,1,8.827-29.27L30.6,71H59.449l1.786,1.349a25.925,25.925,0,0,1,8.829,29.271Zm-5.036-8.589a19.391,19.391,0,0,1-1.1,6.434l-6.1,17.362A1.749,1.749,0,0,1,56.184,118H33.865a1.749,1.749,0,0,1-1.651-1.17l-6.1-17.361a19.328,19.328,0,0,1-.261-12.048,1.751,1.751,0,1,1,3.35,1.018,15.81,15.81,0,0,0,.214,9.871L35.1,114.5H54.943l5.686-16.192a15.867,15.867,0,0,0,.9-5.274A16.08,16.08,0,0,0,56.035,81H33.379a1.75,1.75,0,1,1,0-3.5H56.67a1.755,1.755,0,0,1,1.1.386A19.6,19.6,0,0,1,65.028,93.034ZM81.477,37.156,82,31.4a1.75,1.75,0,0,1,3.486.319l-.525,5.752a1.751,1.751,0,0,1-1.741,1.591c-.054,0-.108,0-.162-.007A1.75,1.75,0,0,1,81.477,37.156ZM107.711,1.591A1.751,1.751,0,0,0,105.968,0h-19.5a1.75,1.75,0,0,0-1.743,1.591l-1.6,17.5a1.75,1.75,0,0,0,3.486.319L88.065,3.5H104.37l4.942,54.128H83.122l.717-7.841a1.751,1.751,0,0,0-3.487-.318l-.89,9.75a1.749,1.749,0,0,0,1.743,1.909h9.262V93.147l-7.926,26.6a1.749,1.749,0,0,0,.214,1.459,16.735,16.735,0,0,0,26.926,0,1.747,1.747,0,0,0,.213-1.46l-7.927-26.6V61.128h9.262a1.752,1.752,0,0,0,1.744-1.909ZM96.218,124.5a13.115,13.115,0,0,1-10.069-4.608l7.379-24.764h5.378l7.38,24.764A13.117,13.117,0,0,1,96.218,124.5Zm2.249-32.872h-4.5v-30.5h4.5Z" fill="url(#a)"/></svg>
