<svg id="Layer_1" height="512" viewBox="0 0 512 512" width="512" xmlns="http://www.w3.org/2000/svg" xmlns:xlink="http://www.w3.org/1999/xlink" data-name="Layer 1"><linearGradient id="linear-gradient" gradientUnits="userSpaceOnUse" x1="255.987" x2="255.987" y1="468" y2="94.814"><stop offset=".322" stop-color="#a163f5"/><stop offset=".466" stop-color="#b074ee"/><stop offset=".752" stop-color="#d8a1dd"/><stop offset=".898" stop-color="#efbad3"/></linearGradient><linearGradient id="linear-gradient-2" x1="135.425" x2="135.425" xlink:href="#linear-gradient" y1="468" y2="94.814"/><linearGradient id="linear-gradient-3" x1="113.515" x2="113.515" xlink:href="#linear-gradient" y1="468" y2="94.814"/><linearGradient id="linear-gradient-4" x1="418.045" x2="418.045" xlink:href="#linear-gradient" y1="468" y2="94.814"/><linearGradient id="linear-gradient-5" x1="388.005" x2="388.005" xlink:href="#linear-gradient" y1="468" y2="94.814"/><path d="m488.853 70.357-47.2-47.195a16.93 16.93 0 0 0 -22.938-.834l-104.534 90.219a6 6 0 0 0 -.324 8.786l14.007 14.006-23.806 23.8a6 6 0 0 0 0 8.486l15.148 15.147-32.194 32.193c-19.078-14.124-46.685-12.306-64.1 5.116l-14.229 14.239a69.185 69.185 0 0 0 -48.183 18.58l-140.407 132.435a6 6 0 0 0 -.124 8.61l98.16 98.185a6.116 6.116 0 0 0 4.241 1.87h.092a6.027 6.027 0 0 0 4.277-2l132.348-140.622a69.48 69.48 0 0 0 18.5-48.189l14.771-14.8a48.707 48.707 0 0 0 3.334-65.135l32-32 16.708 16.71a6 6 0 0 0 8.485 0l23.807-23.8 14 14a6 6 0 0 0 4.243 1.757h.22a6 6 0 0 0 4.322-2.076l90.22-104.529a16.953 16.953 0 0 0 -.844-22.959zm-204.987 209.543-64.081 64.309a15.789 15.789 0 0 1 -11.119 4.791h-.007a15.792 15.792 0 0 1 -11.118-4.786l-29.658-29.714a15.815 15.815 0 0 1 -.018-22.3l11.635-11.677a6.005 6.005 0 0 0 -8.488-8.5l-11.641 11.648a27.775 27.775 0 0 0 .029 39.229l29.657 29.8a27.71 27.71 0 0 0 19.6 8.3h.012a27.7 27.7 0 0 0 19.6-8.311l35.966-36.083a57.251 57.251 0 0 1 -13.928 26.575l-128.073 136-89.411-89.346 135.877-128.167a57.318 57.318 0 0 1 26.649-14l-11.3 11.307a6 6 0 1 0 8.489 8.481l38.87-38.9a37.535 37.535 0 0 1 47-4.985l-28.035 28.035-29.181 9.271a6 6 0 0 0 -2.426 9.961l22.42 22.42a6 6 0 0 0 9.961-2.426l10.44-32.86a5.876 5.876 0 0 0 .2-.806l25.37-25.369a36.683 36.683 0 0 1 -3.278 48.1zm-37.233-14.512-3.945 12.412-8.471-8.471zm102.008-70.151-31.855-31.855 19.563-19.557 31.851 31.854zm45.966-10.124-54.014-54.013-13.684-13.683 18.937-16.343 65.1 65.1zm86-99.642-61.8 71.6-63.852-63.861 71.611-61.8a4.881 4.881 0 0 1 6.611.245l47.185 47.184a4.9 4.9 0 0 1 .246 6.631z" fill="url(#linear-gradient)"/><path d="m105.265 345.309a6 6 0 0 0 0 8.485l51.83 51.781a6 6 0 1 0 8.482-8.49l-51.83-51.78a6 6 0 0 0 -8.482.004z" fill="url(#linear-gradient-2)"/><path d="m91.84 365.175a6 6 0 0 0 -8.48 8.49l51.83 51.77a6 6 0 0 0 8.48-8.49z" fill="url(#linear-gradient-3)"/><path d="m418.8 52.259-9.19 7.65a6 6 0 1 0 7.678 9.222l9.19-7.65a6 6 0 0 0 -7.678-9.222z" fill="url(#linear-gradient-4)"/><path d="m396.031 71.359-24.01 21.27a6 6 0 0 0 7.958 8.982l24.01-21.27a6 6 0 0 0 -7.958-8.982z" fill="url(#linear-gradient-5)"/></svg>