<svg id="Layer_1" height="512" viewBox="0 0 512 512" width="512" xmlns="http://www.w3.org/2000/svg" xmlns:xlink="http://www.w3.org/1999/xlink" data-name="Layer 1"><linearGradient id="linear-gradient" gradientUnits="userSpaceOnUse" x1="183.166" x2="183.166" y1="468" y2="94.814"><stop offset=".322" stop-color="#a163f5"/><stop offset=".466" stop-color="#b074ee"/><stop offset=".752" stop-color="#d8a1dd"/><stop offset=".898" stop-color="#efbad3"/></linearGradient><linearGradient id="linear-gradient-2" x1="183" x2="183" xlink:href="#linear-gradient" y1="468" y2="94.814"/><linearGradient id="linear-gradient-3" x1="414.5" x2="414.5" xlink:href="#linear-gradient" y1="468" y2="94.814"/><linearGradient id="linear-gradient-4" x1="183.09" x2="183.09" xlink:href="#linear-gradient" y1="468" y2="94.814"/><linearGradient id="linear-gradient-7" x1="98.96" x2="98.96" xlink:href="#linear-gradient" y1="468" y2="94.814"/><linearGradient id="linear-gradient-8" x1="82.875" x2="82.875" xlink:href="#linear-gradient" y1="468" y2="94.814"/><path d="m284.422 466.054 37.89-173.661a88.651 88.651 0 0 0 -72.312-107.026v-59.057a6.616 6.616 0 0 0 -6.39-6.31h-121.05c-3.313 0-5.56 3-5.56 6.31v59.057a87.273 87.273 0 0 0 -57.482 34.69 89.558 89.558 0 0 0 -15.55 72.223l37.832 173.775a6.146 6.146 0 0 0 5.81 4.945h190.95a6.205 6.205 0 0 0 5.862-4.946zm-155.422-334.054h109v19h-109zm-42.563 299-30.855-141.3a77.473 77.473 0 0 1 13.372-62.526 75.315 75.315 0 0 1 54.15-30.507c1.437-.124 2.857-.4 4.214-.432.771-.019 1.541-.23 2.312-.23h17.37a6 6 0 0 0 0-12h-17.37a.913.913 0 0 0 -.63.407v-21.412h109v21.407c-1-.005-1.1-.407-1.46-.407h-66.04a6 6 0 0 0 0 12h66.04c.781 0 1.552.215 2.314.233 1.374.036 2.751.212 4.22.338a75.382 75.382 0 0 1 54.153 30.568 77.482 77.482 0 0 1 13.361 62.532l-30.856 141.329zm187.291 28h-181.287l-3.384-16h188.055z" fill="url(#linear-gradient)"/><path d="m230 255h-94a6 6 0 0 0 -6 6v134a6 6 0 0 0 6 6h94a6 6 0 0 0 6-6v-134a6 6 0 0 0 -6-6zm-6 134h-82v-122h82z" fill="url(#linear-gradient-2)"/><path d="m464.22 286h-44.22v-193.143l21.7-42.707a6.432 6.432 0 0 0 -.157-6.071 6.069 6.069 0 0 0 -5.013-3.079h-45.47a6.481 6.481 0 0 0 -5.486 9.148l22.426 42.774v193.078h-43.49c-3.314 0-5.51 2.836-5.51 6.15v93.34a171.871 171.871 0 0 0 20.354 82.139 6.034 6.034 0 0 0 5.156 3.371h59.71a6.051 6.051 0 0 0 5.169-3.372 173.588 173.588 0 0 0 20.611-82.138v-93.34a5.946 5.946 0 0 0 -5.78-6.15zm-63.189-233h25.757l-12.553 24.914zm56.969 332.49a163.855 163.855 0 0 1 -17.4 73.51h-52.469a166.312 166.312 0 0 1 -12.479-33.987 161.883 161.883 0 0 1 -4.652-39.523v-56.49h87zm0-68.49h-87v-19h87z" fill="url(#linear-gradient-3)"/><g fill="url(#linear-gradient-4)"><path d="m164.76 305h36.66a6 6 0 0 0 0-12h-36.66a6 6 0 0 0 0 12z"/><path d="m164.76 334h36.66a6 6 0 0 0 0-12h-36.66a6 6 0 0 0 0 12z"/><path d="m164.76 362h36.66a6 6 0 0 0 0-12h-36.66a6 6 0 0 0 0 12z"/></g><path d="m98.482 219.454a90.788 90.788 0 0 0 -8.012 9.05 6 6 0 0 0 9.5 7.332 78.661 78.661 0 0 1 6.948-7.849 6 6 0 1 0 -8.436-8.533z" fill="url(#linear-gradient-7)"/><path d="m85.582 299.719a76.631 76.631 0 0 1 5.873-50.094 6 6 0 0 0 -10.81-5.21 88.517 88.517 0 0 0 -6.787 57.864l8.27 37.89a6 6 0 1 0 11.724-2.558z" fill="url(#linear-gradient-8)"/></svg>