<svg id="Layer_1" height="512" viewBox="0 0 512 512" width="512" xmlns="http://www.w3.org/2000/svg" xmlns:xlink="http://www.w3.org/1999/xlink" data-name="Layer 1"><linearGradient id="linear-gradient" gradientUnits="userSpaceOnUse" x1="241.971" x2="241.971" y1="466.122" y2="58.316"><stop offset=".322" stop-color="#a163f5"/><stop offset=".466" stop-color="#b074ee"/><stop offset=".752" stop-color="#d8a1dd"/><stop offset=".898" stop-color="#efbad3"/></linearGradient><linearGradient id="linear-gradient-2" x1="167.037" x2="167.037" xlink:href="#linear-gradient" y1="466.122" y2="58.316"/><linearGradient id="linear-gradient-3" x1="101.752" x2="101.752" xlink:href="#linear-gradient" y1="466.122" y2="58.316"/><linearGradient id="linear-gradient-4" x1="69.571" x2="69.571" xlink:href="#linear-gradient" y1="466.122" y2="58.316"/><linearGradient id="linear-gradient-5" x1="307.295" x2="307.295" xlink:href="#linear-gradient" y1="466.122" y2="58.316"/><linearGradient id="linear-gradient-10" x1="460.248" x2="460.248" xlink:href="#linear-gradient" y1="466.122" y2="58.316"/><linearGradient id="linear-gradient-11" x1="474.291" x2="474.291" xlink:href="#linear-gradient" y1="466.122" y2="58.316"/><linearGradient id="linear-gradient-12" x1="211.163" x2="211.163" xlink:href="#linear-gradient" y1="466.122" y2="58.316"/><path d="m241.971 203.438a31.981 31.981 0 1 0 -31.952-31.981 32 32 0 0 0 31.952 31.981zm0-51.961a19.981 19.981 0 1 1 -19.952 19.98 19.988 19.988 0 0 1 19.952-19.98z" fill="url(#linear-gradient)"/><path d="m167.038 205.516a31.981 31.981 0 1 0 -31.953-31.98 32 32 0 0 0 31.953 31.98zm0-51.961a19.981 19.981 0 1 1 -19.953 19.981 19.989 19.989 0 0 1 19.953-19.981z" fill="url(#linear-gradient-2)"/><path d="m101.751 183.045a31.981 31.981 0 1 0 31.949 31.981 32 32 0 0 0 -31.949-31.981zm0 51.961a19.981 19.981 0 1 1 19.953-19.98 19.989 19.989 0 0 1 -19.953 19.98z" fill="url(#linear-gradient-3)"/><path d="m37.618 284.654a31.953 31.953 0 1 0 31.953-31.981 32 32 0 0 0 -31.953 31.981zm51.9 0a19.953 19.953 0 1 1 -19.952-19.981 19.989 19.989 0 0 1 19.957 19.981z" fill="url(#linear-gradient-4)"/><path d="m307.3 244.928a31.981 31.981 0 1 0 -31.953-31.981 32 32 0 0 0 31.953 31.981zm0-51.961a19.981 19.981 0 1 1 -19.953 19.98 19.989 19.989 0 0 1 19.953-19.98z" fill="url(#linear-gradient-5)"/><path d="m241.971 429.831a31.981 31.981 0 1 0 -31.952-31.98 32 32 0 0 0 31.952 31.98zm0-51.961a19.981 19.981 0 1 1 -19.952 19.981 19.989 19.989 0 0 1 19.952-19.981z" fill="url(#linear-gradient)"/><path d="m167.038 427.753a31.981 31.981 0 1 0 -31.953-31.981 32 32 0 0 0 31.953 31.981zm0-51.961a19.981 19.981 0 1 1 -19.953 19.98 19.989 19.989 0 0 1 19.953-19.98z" fill="url(#linear-gradient-2)"/><path d="m101.751 322.3a31.981 31.981 0 1 0 31.949 31.982 32 32 0 0 0 -31.949-31.982zm0 51.961a19.981 19.981 0 1 1 19.953-19.98 19.989 19.989 0 0 1 -19.953 19.981z" fill="url(#linear-gradient-3)"/><path d="m307.3 388.341a31.981 31.981 0 1 0 -31.953-31.981 32 32 0 0 0 31.953 31.981zm0-51.962a19.981 19.981 0 1 1 -19.953 19.981 19.99 19.99 0 0 1 19.953-19.981z" fill="url(#linear-gradient-5)"/><path d="m464.618 40.71a6 6 0 0 0 -8.5-.072l-17.967 17.738a62.519 62.519 0 0 0 -12.238 72.024l2.312 4.727a35.769 35.769 0 0 0 11.051 13.142l-6.376 28.731a243.863 243.863 0 0 0 -5.389 66.929l10.7 185.048a80.772 80.772 0 0 0 9.182 33.106 14.653 14.653 0 0 0 12.886 7.917h.023a14.669 14.669 0 0 0 12.89-7.874 80.4 80.4 0 0 0 9.27-33.212l10.691-184.954a244.048 244.048 0 0 0 -5.389-66.943l-6.352-28.617a35.791 35.791 0 0 0 11.356-13.575l2.127-4.455a62.792 62.792 0 0 0 -11.752-70.738zm5.864 387.453a68.74 68.74 0 0 1 -7.892 28.34 2.657 2.657 0 0 1 -2.29 1.497 2.7 2.7 0 0 1 -2.321-1.566 68.479 68.479 0 0 1 -7.789-28.088l-10.49-181.394a104.266 104.266 0 0 0 41.257-.022zm11.025-193.638a92.809 92.809 0 0 1 -42.351 0 231.719 231.719 0 0 1 .96-26.247 96.947 96.947 0 0 0 40.43 0 231.729 231.729 0 0 1 .961 26.247zm-39.956-38.225q1.227-8.392 3.063-16.693l5.737-25.843a35.235 35.235 0 0 0 19.973.056l5.725 25.787q1.841 8.3 3.062 16.693a85.023 85.023 0 0 1 -37.56 0zm42.514-71.1-2.126 4.454a23.835 23.835 0 0 1 -42.935.206l-2.312-4.727a50.53 50.53 0 0 1 9.89-58.215l13.677-13.5 14.309 14.614a50.749 50.749 0 0 1 9.497 57.168z" fill="url(#linear-gradient-10)"/><path d="m469.047 77.693a6 6 0 0 0 -2.874 7.984 50.644 50.644 0 0 1 .858 41.151 6 6 0 1 0 11.06 4.654 62.66 62.66 0 0 0 -1.06-50.916 6 6 0 0 0 -7.984-2.873z" fill="url(#linear-gradient-11)"/><path d="m378.364 241h.283a32.378 32.378 0 0 0 27.424-49.965c-18.214-28.32-44.546-51.965-76.149-68.476-32.322-16.886-69.443-25.785-107.361-25.785-56.383 0-109.416 19.467-149.33 54.793a200.254 200.254 0 0 0 -14.931 14.675 6.059 6.059 0 0 0 8.973 8.145c36.607-39.975 92.616-65.587 155.288-65.587 35.991 0 71.194 8.455 101.8 24.447 29.545 15.437 54.165 37.491 71.241 63.808a21 21 0 0 1 1.124 21.411 20.144 20.144 0 0 1 -18.079 10.534h-.283c-30.718 0-55.709 25.223-55.709 55.971a55.888 55.888 0 0 0 55.709 55.867 20.679 20.679 0 0 1 17.3 31.9c-17.184 26.316-41.939 48.419-71.588 63.9a220.087 220.087 0 0 1 -101.518 24.447c-110.035.001-199.558-79.085-199.558-176.307a158.149 158.149 0 0 1 20.367-77.39 6.053 6.053 0 0 0 -1.571-7.733l-.02-.015a6.077 6.077 0 0 0 -9.04 1.882 170.412 170.412 0 0 0 -21.736 83.252c0 103.836 94.906 188.315 211.561 188.315 37.71 0 74.735-8.921 107.071-25.8 31.468-16.427 57.777-39.926 76.083-67.96a32.617 32.617 0 0 0 -27.351-50.387 43.971 43.971 0 0 1 0-87.941z" fill="url(#linear-gradient-12)"/></svg>