<svg height="512" viewBox="0 0 512 512" width="512" xmlns="http://www.w3.org/2000/svg" xmlns:xlink="http://www.w3.org/1999/xlink"><linearGradient id="New_Gradient_Swatch_2" gradientUnits="userSpaceOnUse" x1="312" x2="312" y1="41.634" y2="469.615"><stop offset="0" stop-color="#fc5c7d"/><stop offset=".129" stop-color="#f35e85"/><stop offset=".343" stop-color="#d9659b"/><stop offset=".616" stop-color="#b070bf"/><stop offset=".934" stop-color="#777ff0"/><stop offset="1" stop-color="#6a82fb"/></linearGradient><linearGradient id="New_Gradient_Swatch_2-2" x1="120" x2="120" xlink:href="#New_Gradient_Swatch_2" y1="41.634" y2="469.615"/><linearGradient id="New_Gradient_Swatch_2-3" x1="288" x2="288" xlink:href="#New_Gradient_Swatch_2" y1="41.634" y2="469.615"/><linearGradient id="New_Gradient_Swatch_2-4" x1="392" x2="392" xlink:href="#New_Gradient_Swatch_2" y1="41.634" y2="469.615"/><linearGradient id="New_Gradient_Swatch_2-9" x1="256" x2="256" xlink:href="#New_Gradient_Swatch_2" y1="41.634" y2="469.615"/><g id="GD001"><path d="m160 264v72h16v-32h272v72h16v-112a8 8 0 0 0 -8-8h-288a8 8 0 0 0 -8 8zm288 8v16h-272v-16z" fill="url(#New_Gradient_Swatch_2)"/><path d="m64 216h112v24h16v-64a8 8 0 0 0 -8-8h-32v-80a8 8 0 0 0 -8-8h-48a8 8 0 0 0 -8 8v80h-32a8 8 0 0 0 -8 8v200h16zm40-120h32v72h-32zm72 88v16h-112v-16z" fill="url(#New_Gradient_Swatch_2-2)"/><path d="m224 144h128v16h16v-56a8 8 0 0 0 -8-8h-16v-8a24.028 24.028 0 0 0 -24-24h-24v-32h20.687l13.656 13.657 11.314-11.314-16-16a8 8 0 0 0 -5.657-2.343h-56v16h16v32h-24a24.028 24.028 0 0 0 -24 24v8h-16a8 8 0 0 0 -8 8v136h16zm24-56a8.009 8.009 0 0 1 8-8h64a8.009 8.009 0 0 1 8 8v8h-80zm104 24v16h-128v-16z" fill="url(#New_Gradient_Swatch_2-3)"/><path d="m330.068 178.632a8 8 0 0 0 -2.028 6.164l5.6 56 15.92-1.592-4.72-47.204h94.32l-4.72 47.2 15.92 1.592 5.6-56a8 8 0 0 0 -7.96-8.792h-112a8 8 0 0 0 -5.932 2.632z" fill="url(#New_Gradient_Swatch_2-4)"/><path d="m112 232h16v16h-16z" fill="url(#New_Gradient_Swatch_2-2)"/><path d="m96 264h48v16h-48z" fill="url(#New_Gradient_Swatch_2-2)"/><path d="m280 160h16v16h-16z" fill="url(#New_Gradient_Swatch_2-3)"/><path d="m264 192h48v16h-48z" fill="url(#New_Gradient_Swatch_2-3)"/><path d="m456 392h-24v-1.547a32.082 32.082 0 0 0 -29.871-31.929l-67.311-4.487a74.858 74.858 0 0 0 -57.939 21.77 98.5 98.5 0 0 0 -20.879 30.699 98.523 98.523 0 0 0 -20.88-30.7 74.9 74.9 0 0 0 -57.938-21.769l-67.311 4.487a32.082 32.082 0 0 0 -29.871 31.929v1.547h-24a40.045 40.045 0 0 0 -40 40 8 8 0 0 0 7.2 7.96l152.8 15.28v40.76h16v-48a8 8 0 0 0 -7.2-7.96l-151.718-15.172a24.041 24.041 0 0 1 22.918-16.868h96v-16h-56v-1.547a16.041 16.041 0 0 1 14.936-15.964l67.31-4.489a58.861 58.861 0 0 1 45.561 17.119 82.06 82.06 0 0 1 24.193 58.409v50.472h16v-50.472a82.061 82.061 0 0 1 24.194-58.408 58.863 58.863 0 0 1 45.56-17.12l67.31 4.487a16.041 16.041 0 0 1 14.936 15.966v1.547h-56v16h96a24.041 24.041 0 0 1 22.918 16.868l-151.718 15.172a8 8 0 0 0 -7.2 7.96v48h16v-40.76l152.8-15.28a8 8 0 0 0 7.2-7.96 40.045 40.045 0 0 0 -40-40z" fill="url(#New_Gradient_Swatch_2-9)"/></g></svg>