<svg id="Bold" enable-background="new 0 0 32 32" height="512" viewBox="0 0 32 32" width="512" xmlns="http://www.w3.org/2000/svg"><path d="m26 32h-20c-3.314 0-6-2.686-6-6v-20c0-3.314 2.686-6 6-6h20c3.314 0 6 2.686 6 6v20c0 3.314-2.686 6-6 6z" fill="#f5e6fe"/><path d="m23.564 17.261c.477-4.018-.229-6.555-1.504-7.702l.001-.001c-2.058-1.96-9.006-2.25-11.467.088-1.106 1.144-1.495 2.821-1.538 4.899s-.093 5.971 3.534 7.027h.003l-.003 1.612s-.025.653.392.785c.477.155.694-.149 2.178-1.922 2.483.215 4.389-.278 4.606-.35.502-.168 3.339-.544 3.798-4.436zm-8.159 3.651s-1.571 1.959-2.06 2.468c-.16.165-.335.15-.333-.178 0-.215.012-2.678.012-2.678-3.075-.881-2.894-4.196-2.861-5.93.034-1.734.351-3.156 1.287-4.112 2.159-2.024 8.25-1.572 9.802-.113 1.897 1.682 1.222 6.434 1.226 6.596-.39 3.249-2.688 3.455-3.111 3.596-.18.061-1.856.492-3.962.351z" fill="#be63f9"/><g fill="#d9a4fc"><path d="m16.275 10.864c-.256 0-.256.4 0 .403 1.991.015 3.631 1.403 3.649 3.949 0 .269.393.265.39-.003h-.001c-.021-2.743-1.812-4.334-4.038-4.349z"/><path d="m18.894 14.795c-.006.265.387.278.39.009.033-1.512-.9-2.759-2.652-2.89-.256-.019-.284.385-.027.403 1.519.115 2.32 1.152 2.289 2.478z"/><path d="m18.474 16.515c-.329-.191-.664-.072-.804.115l-.29.375c-.148.191-.423.165-.423.165-2.009-.531-2.547-2.634-2.547-2.634s-.025-.284.16-.437l.363-.3c.181-.144.296-.491.112-.831-.494-.891-.825-1.198-.994-1.434-.178-.222-.444-.272-.722-.122h-.006c-.577.337-1.208.969-1.006 1.618.345.685.978 2.87 2.996 4.521.949.781 2.45 1.58 3.087 1.765l.006.009c.628.209 1.239-.447 1.565-1.041v-.004c.145-.287.097-.559-.115-.737-.373-.365-.938-.769-1.382-1.028z"/><path d="m16.906 13.401c.641.037.951.372.985 1.059.012.269.402.25.39-.019-.043-.897-.51-1.397-1.353-1.444-.258-.014-.281.389-.022.404z"/></g></svg>