<svg id="Layer_1" height="512" viewBox="0 0 512 512" width="512" xmlns="http://www.w3.org/2000/svg" xmlns:xlink="http://www.w3.org/1999/xlink" data-name="Layer 1"><linearGradient id="linear-gradient" gradientUnits="userSpaceOnUse" x1="72.979" x2="72.979" y1="482.107" y2="86.735"><stop offset=".322" stop-color="#a163f5"/><stop offset=".466" stop-color="#b074ee"/><stop offset=".752" stop-color="#d8a1dd"/><stop offset=".898" stop-color="#efbad3"/></linearGradient><linearGradient id="linear-gradient-3" x1="439.021" x2="439.021" xlink:href="#linear-gradient" y1="482.107" y2="86.735"/><linearGradient id="linear-gradient-5" x1="256" x2="256" xlink:href="#linear-gradient" y1="482.107" y2="86.735"/><path d="m11 140.958a6 6 0 0 0 6-6v-117.958h117.958a6 6 0 0 0 0-12h-123.958a6 6 0 0 0 -6 6v123.958a6 6 0 0 0 6 6z" fill="url(#linear-gradient)"/><path d="m134.958 495h-117.958v-117.958a6 6 0 0 0 -12 0v123.958a6 6 0 0 0 6 6h123.958a6 6 0 0 0 0-12z" fill="url(#linear-gradient)"/><path d="m501 371.042a6 6 0 0 0 -6 6v117.958h-117.958a6 6 0 1 0 0 12h123.958a6 6 0 0 0 6-6v-123.958a6 6 0 0 0 -6-6z" fill="url(#linear-gradient-3)"/><path d="m501 5h-123.958a6 6 0 0 0 0 12h117.958v117.958a6 6 0 0 0 12 0v-123.958a6 6 0 0 0 -6-6z" fill="url(#linear-gradient-3)"/><g fill="url(#linear-gradient-5)"><path d="m484.184 258.734a6 6 0 0 0 0-5.468 256.256 256.256 0 0 0 -456.368 0 6 6 0 0 0 0 5.468 256.256 256.256 0 0 0 456.368 0zm-228.184 127.611a244.152 244.152 0 0 1 -216.081-130.345 244.252 244.252 0 0 1 432.162 0 244.152 244.152 0 0 1 -216.081 130.345z"/><path d="m295.593 243.916a6 6 0 0 0 -5.378.022 16.212 16.212 0 0 1 -7.391 1.754 16.535 16.535 0 0 1 -16.516-16.516 16.219 16.219 0 0 1 1.754-7.392 6 6 0 0 0 -4.275-8.612 43.5 43.5 0 1 0 35.041 35.039 6 6 0 0 0 -3.235-4.295zm-39.593 43.61a31.526 31.526 0 0 1 -1.313-63.025 28.549 28.549 0 0 0 32.813 32.811 31.564 31.564 0 0 1 -31.5 30.214z"/><path d="m256 174.948a81.035 81.035 0 1 0 81.052 81.052 80.571 80.571 0 0 0 -81.052-81.052zm30.963 142.745a67.934 67.934 0 0 1 -30.963 7.359 69.129 69.129 0 0 1 -69.052-69.052 69.12 69.12 0 0 1 69.052-69.052 69.035 69.035 0 0 1 30.963 130.745z"/></g></svg>